<?xml version="1.0" standalone="no"?><!DOCTYPE svg PUBLIC "-//W3C//DTD SVG 1.1//EN" "http://www.w3.org/Graphics/SVG/1.1/DTD/svg11.dtd"><svg t="1606995924848" class="icon" viewBox="0 0 1024 1024" version="1.1" xmlns="http://www.w3.org/2000/svg" p-id="4477" xmlns:xlink="http://www.w3.org/1999/xlink" width="200" height="200"><defs><style type="text/css"></style></defs><path d="M832 896H192c-36.266667 0-64-27.733333-64-64V416c0-12.8 8.533333-21.333333 21.333333-21.333333s21.333333 8.533333 21.333334 21.333333V832c0 12.8 8.533333 21.333333 21.333333 21.333333h640c12.8 0 21.333333-8.533333 21.333333-21.333333V416c0-12.8 8.533333-21.333333 21.333334-21.333333s21.333333 8.533333 21.333333 21.333333V832c0 36.266667-27.733333 64-64 64z" p-id="4478"></path><path d="M512 682.666667c-4.266667 0-8.533333-2.133333-12.8-4.266667l-362.666667-245.333333c-4.266667-4.266667-8.533333-10.666667-8.533333-17.066667s4.266667-12.8 8.533333-17.066667l170.666667-115.2c10.666667-6.4 23.466667-4.266667 29.866667 6.4 6.4 10.666667 4.266667 23.466667-6.4 29.866667l-145.066667 98.133333L512 635.733333l324.266667-219.733333-145.066667-98.133333c-10.666667-6.4-12.8-19.2-6.4-29.866667 6.4-10.666667 19.2-12.8 29.866667-6.4l170.666666 115.2c6.4 4.266667 8.533333 10.666667 8.533334 17.066667s-4.266667 12.8-8.533334 17.066666l-362.666666 245.333334c-2.133333 4.266667-6.4 6.4-10.666667 6.4z" p-id="4479"></path><path d="M512 686.933333l-213.333333-145.066666V149.333333h426.666666v392.533334l-213.333333 145.066666z m-170.666667-166.4l170.666667 115.2 170.666667-115.2V192H341.333333v328.533333z" p-id="4480"></path><path d="M426.666667 149.333333c0 70.4-57.6 128-128 128V149.333333h128zM597.333333 149.333333c0 70.4 57.6 128 128 128V149.333333h-128zM512 362.666667c-6.4 0-10.666667-2.133333-14.933333-6.4l-64-64c-8.533333-8.533333-8.533333-21.333333 0-29.866667s21.333333-8.533333 29.866666 0l64 64c8.533333 8.533333 8.533333 21.333333 0 29.866667-4.266667 4.266667-10.666667 6.4-14.933333 6.4z" p-id="4481"></path><path d="M512 362.666667c-6.4 0-10.666667-2.133333-14.933333-6.4-8.533333-8.533333-8.533333-21.333333 0-29.866667l64-64c8.533333-8.533333 21.333333-8.533333 29.866666 0s8.533333 21.333333 0 29.866667l-64 64c-4.266667 4.266667-10.666667 6.4-14.933333 6.4z" p-id="4482"></path><path d="M586.666667 384h-151.466667c-12.8 0-21.333333-8.533333-21.333333-21.333333s8.533333-21.333333 21.333333-21.333334h151.466667c12.8 0 21.333333 8.533333 21.333333 21.333334s-8.533333 21.333333-21.333333 21.333333zM586.666667 460.8h-151.466667c-12.8 0-21.333333-8.533333-21.333333-21.333333s8.533333-21.333333 21.333333-21.333334h151.466667c12.8 0 21.333333 8.533333 21.333333 21.333334s-8.533333 21.333333-21.333333 21.333333z" p-id="4483"></path><path d="M512 535.466667c-12.8 0-21.333333-8.533333-21.333333-21.333334v-162.133333c0-12.8 8.533333-21.333333 21.333333-21.333333s21.333333 8.533333 21.333333 21.333333v162.133333c0 10.666667-10.666667 21.333333-21.333333 21.333334z" p-id="4484"></path></svg>