<?xml version="1.0" standalone="no"?><!DOCTYPE svg PUBLIC "-//W3C//DTD SVG 1.1//EN" "http://www.w3.org/Graphics/SVG/1.1/DTD/svg11.dtd"><svg t="1611311475939" class="icon" viewBox="0 0 1024 1024" version="1.1" xmlns="http://www.w3.org/2000/svg" p-id="2670" xmlns:xlink="http://www.w3.org/1999/xlink" width="200" height="200"><defs><style type="text/css"></style></defs><path d="M800 288H672c-17.6 0-32-14.4-32-32s14.4-32 32-32h128c17.6 0 32 14.4 32 32s-14.4 32-32 32zM800 448H544c-17.6 0-32-14.4-32-32s14.4-32 32-32h256c17.6 0 32 14.4 32 32s-14.4 32-32 32zM800 608H224c-17.6 0-32-14.4-32-32s14.4-32 32-32h576c17.6 0 32 14.4 32 32s-14.4 32-32 32zM800 768H224c-17.6 0-32-14.4-32-32s14.4-32 32-32h576c17.6 0 32 14.4 32 32s-14.4 32-32 32z" p-id="2671"></path><path d="M898 960H126c-34.19 0-62-27.81-62-62V126c0-34.19 27.81-62 62-62h772c34.19 0 62 27.81 62 62v772c0 34.19-27.81 62-62 62z m-770-64h768V128H128v768z" p-id="2672"></path><path d="M282.51 262.37m-18.71 0a18.71 18.71 0 1 0 37.42 0 18.71 18.71 0 1 0-37.42 0Z" p-id="2673"></path><path d="M347.04 262.37m-18.71 0a18.71 18.71 0 1 0 37.42 0 18.71 18.71 0 1 0-37.42 0Z" p-id="2674"></path><path d="M245.09 432.64a19.996 19.996 0 0 1-19.75-23.18l5.75-35.73c-23.08-20.62-36.09-48.7-36.09-78.71C195 234.35 248.8 185 314.92 185c31.29 0 60.9 10.98 83.36 30.91 23.02 20.42 35.99 47.84 36.53 77.22a20.005 20.005 0 0 1-25.13 19.7 72.306 72.306 0 0 0-18.54-2.4c-35.05 0-63.57 24.8-63.57 55.29 0 4.61 0.66 9.19 1.95 13.62 1.81 6.18 0.53 12.86-3.44 17.93a20.019 20.019 0 0 1-16.57 7.67c-4.85-0.2-9.7-0.67-14.49-1.4l-38.9 25.78a19.893 19.893 0 0 1-11.03 3.32z m27.19-63.07l-0.19 1.18 7.6-5.04c2.42-1.6 5.14-2.65 7.95-3.09 1.76-50.68 46.74-91.5 102.07-92.19C378.26 243.96 348.9 225 314.93 225c-44.07 0-79.92 31.41-79.92 70.02 0 21.04 10.7 40.79 29.36 54.19 6.59 4.73 9.5 12.79 7.91 20.36z" fill="#040000" p-id="2675"></path><path d="M449.57 484.08c-3.85 0-7.7-1.11-11.05-3.33l-31.48-20.86c-5.24 0.74-10.55 1.12-15.88 1.12-57.11 0-103.57-42.75-103.57-95.29s46.46-95.29 103.57-95.29 103.57 42.75 103.57 95.29c0 25.46-10.77 49.31-29.94 67.06l4.53 28.13a20.014 20.014 0 0 1-8.91 19.99 20.088 20.088 0 0 1-10.84 3.18z m-38.18-65.3c3.9 0 7.75 1.14 11.05 3.33l0.86 0.57c0.54-5.55 3.4-10.83 8.24-14.3 14.74-10.58 23.19-26.13 23.19-42.66 0-30.49-28.52-55.29-63.57-55.29s-63.57 24.8-63.57 55.29 28.52 55.29 63.57 55.29c5.36 0 10.7-0.59 15.86-1.74 1.44-0.33 2.91-0.49 4.37-0.49z" fill="#040000" p-id="2676"></path><path d="M418.28 345.89m-15.64 0a15.64 15.64 0 1 0 31.28 0 15.64 15.64 0 1 0-31.28 0Z" p-id="2677"></path><path d="M364.3 345.89m-15.64 0a15.64 15.64 0 1 0 31.28 0 15.64 15.64 0 1 0-31.28 0Z" p-id="2678"></path></svg>