<?xml version="1.0" standalone="no"?><!DOCTYPE svg PUBLIC "-//W3C//DTD SVG 1.1//EN" "http://www.w3.org/Graphics/SVG/1.1/DTD/svg11.dtd"><svg t="1606995792121" class="icon" viewBox="0 0 1024 1024" version="1.1" xmlns="http://www.w3.org/2000/svg" p-id="3946" xmlns:xlink="http://www.w3.org/1999/xlink" width="200" height="200"><defs><style type="text/css"></style></defs><path d="M320.333726 898.880351l433.796894 0 0 59.82862-433.796894 0 0-59.82862Z" p-id="3947"></path><path d="M764.881474 958.708971c-37.70474-1.986237-71.903633-18.229177-95.468328-44.598754-21.11183-23.604604-31.745005-52.973492-30.030967-82.673931l-0.038886-71.513754c0-16.515139 13.399171-29.91431 29.91431-29.91431 16.515139 0 29.91431 13.399171 29.91431 29.91431l0 73.247234c-0.856507 15.46318 4.440126 29.427216 14.839986 41.073464 13.048177 14.58723 32.17377 23.585161 52.466955 24.674982 34.627658-0.038886 64.113203-29.52443 64.113203-65.74947l0-77.376275c0-16.515139 13.399171-29.91431 29.91431-29.91431 16.515139 0 29.91431 13.399171 29.91431 29.91431l0 77.376275C890.420679 902.386198 834.096882 958.708971 764.881474 958.708971z" p-id="3948"></path><path d="M259.297604 958.708971c-0.545422 0-1.090844-0.019443-1.636267-0.038886-36.107359-1.947352-70.306252-18.190291-93.871971-44.559868-21.11183-23.604604-31.745005-52.973492-30.030967-82.673931l-0.038886-72.916706c0-16.515139 13.399171-29.91431 29.91431-29.91431s29.91431 13.399171 29.91431 29.91431l0 74.649164c-0.856507 15.46318 4.440126 29.427216 14.839986 41.073464 13.048177 14.58723 32.17377 23.585161 52.466955 24.674982 16.515139 0.895393 29.17446 14.996552 28.278043 31.492248C288.276612 946.361759 275.072893 958.708971 259.297604 958.708971z" p-id="3949"></path><path d="M255.207449 898.880351l512.751107 0 0 59.82862-512.751107 0 0-59.82862Z" p-id="3950"></path><path d="M890.420679 817.356616 830.591035 817.356616 830.591035 125.119649 397.533992 125.119649c-58.737776 0-108.361987 48.454572-108.361987 105.809861l0 537.815969-59.82862 0L229.343385 230.92951c0-91.340311 75.448366-165.639504 168.190607-165.639504l492.885664 0L890.419655 817.356616z" p-id="3951"></path><path d="M133.7584 728.606293l565.373605 0 0 59.82862-565.373605 0 0-59.82862Z" p-id="3952"></path><path d="M692.626847 308.928978 362.40082 308.928978c-16.515139 0-29.91431-13.399171-29.91431-29.91431 0-16.515139 13.399171-29.91431 29.91431-29.91431l330.226027 0c16.515139 0 29.91431 13.399171 29.91431 29.91431C722.541157 295.529807 709.141986 308.928978 692.626847 308.928978z" p-id="3953"></path><path d="M692.626847 441.051111 362.40082 441.051111c-16.515139 0-29.91431-13.399171-29.91431-29.91431 0-16.515139 13.399171-29.91431 29.91431-29.91431l330.226027 0c16.515139 0 29.91431 13.399171 29.91431 29.91431C722.541157 427.65194 709.141986 441.051111 692.626847 441.051111z" p-id="3954"></path><path d="M552.20877 573.172221 362.40082 573.172221c-16.515139 0-29.91431-13.399171-29.91431-29.91431 0-16.515139 13.399171-29.91431 29.91431-29.91431l189.80795 0c16.515139 0 29.91431 13.399171 29.91431 29.91431C582.123081 559.77305 568.723909 573.172221 552.20877 573.172221z" p-id="3955"></path></svg>