<?xml version="1.0" standalone="no"?><!DOCTYPE svg PUBLIC "-//W3C//DTD SVG 1.1//EN" "http://www.w3.org/Graphics/SVG/1.1/DTD/svg11.dtd"><svg t="1611311444788" class="icon" viewBox="0 0 1024 1024" version="1.1" xmlns="http://www.w3.org/2000/svg" p-id="2066" xmlns:xlink="http://www.w3.org/1999/xlink" width="200" height="200"><defs><style type="text/css"></style></defs><path d="M511.83 69.87c-244.04 0-441.88 197.83-441.88 441.88s197.83 441.88 441.88 441.88c244.04 0 441.88-197.83 441.88-441.88S755.87 69.87 511.83 69.87z m211.53 441.88c0 9.26-0.81 18.53-2.01 27.39l59.63 46.74c5.24 4.43 6.85 12.09 3.23 18.13l-56.41 97.5c-3.62 6.04-10.88 8.46-17.33 6.04l-70.11-28.2c-14.5 11.28-30.62 20.55-47.54 27.8l-10.48 74.54c-1.21 6.85-7.25 12.08-14.1 12.08H455.42c-6.85 0-12.9-5.23-14.11-11.68l-10.47-74.54c-17.33-7.25-33.04-16.52-47.54-27.8l-70.1 28.2c-6.45 2.42-13.7 0-17.33-6.04l-56.41-97.5c-3.62-6.04-2.01-13.7 3.23-18.13l59.63-46.74c-1.21-9.27-2.01-18.53-2.01-27.8s0.81-18.53 2.01-27.39l-59.63-46.74c-5.24-4.43-6.85-12.09-3.23-18.13l56.41-97.5c3.62-6.04 10.88-8.46 17.33-6.04l70.1 28.2c14.51-11.28 30.62-20.55 47.54-27.8l10.47-74.54c1.21-6.85 7.25-12.08 14.11-12.08h112.81c6.85 0 12.89 5.24 14.1 11.68l10.48 74.54c17.33 7.25 33.04 16.52 47.54 27.8l70.11-28.2c6.44-2.42 13.7 0 17.32 6.04l56.41 97.5c3.62 6.04 2.01 13.7-3.22 18.13l-59.63 46.74c1.21 9.26 2.02 18.53 2.02 27.8z" p-id="2067"></path><path d="M511.83 413.63c-53.97 0-98.13 44.16-98.13 98.12 0 53.96 44.16 98.12 98.13 98.12 53.96 0 98.12-44.16 98.12-98.12 0-53.97-44.15-98.12-98.12-98.12z" p-id="2068"></path></svg>