<?xml version="1.0" standalone="no"?><!DOCTYPE svg PUBLIC "-//W3C//DTD SVG 1.1//EN" "http://www.w3.org/Graphics/SVG/1.1/DTD/svg11.dtd"><svg t="1606995865499" class="icon" viewBox="0 0 1024 1024" version="1.1" xmlns="http://www.w3.org/2000/svg" p-id="4141" xmlns:xlink="http://www.w3.org/1999/xlink" width="200" height="200"><defs><style type="text/css"></style></defs><path d="M512 125.4C298.8 125.4 125.4 298.9 125.4 512c0 213.1 173.4 386.6 386.6 386.6 213.2 0 386.6-173.4 386.6-386.6 0-213.2-173.4-386.6-386.6-386.6m0 834.6C265 960 64 759 64 512S265 64 512 64s448 201 448 448-201 448-448 448" p-id="4142"></path><path d="M360.1 683.8l-107-79.2c-10.6-7.9-15-21.6-10.9-34.3 4.1-12.6 15.9-21.1 29.1-21.1h481.5v61.4H364.3l32.2 23.9-36.4 49.3z m392.7-209H271.2v-61.4h388.5l-32.2-23.9 36.5-49.3 107 79.2c10.6 7.9 15 21.6 10.9 34.3-4.1 12.6-15.9 21.1-29.1 21.1z" p-id="4143"></path></svg>