<?xml version="1.0" standalone="no"?><!DOCTYPE svg PUBLIC "-//W3C//DTD SVG 1.1//EN" "http://www.w3.org/Graphics/SVG/1.1/DTD/svg11.dtd"><svg t="1606995707886" class="icon" viewBox="0 0 1027 1024" version="1.1" xmlns="http://www.w3.org/2000/svg" p-id="3804" xmlns:xlink="http://www.w3.org/1999/xlink" width="200.5859375" height="200"><defs><style type="text/css"></style></defs><path d="M479.493063 950.763143H77.089849a25.69595 25.69595 0 0 1-25.695949-25.69595V77.088849a25.69595 25.69595 0 0 1 25.695949-25.695949h847.978344a25.69595 25.69595 0 0 1 25.69595 25.695949v375.679267a25.69595 25.69595 0 1 0 51.3929 0V77.089849A77.089849 77.089849 0 0 0 925.068193 0H77.088849A77.089849 77.089849 0 0 0 0 77.089849v847.977344a77.089849 77.089849 0 0 0 77.089849 77.08985h402.403214a25.69595 25.69595 0 0 0 0-51.3939z" p-id="3805"></path><path d="M543.219939 409.342201V357.949301H423.732172l101.757802-101.756801-36.23193-36.23193-125.911754 125.911754-125.912754-125.911754-36.230929 36.23193 101.499802 101.756801H183.471642v51.3929H337.649341v67.837867H183.214642v51.3929H337.649341V717.698598h51.392899V528.572968h153.9207v-51.3929H389.04224v-67.837867H543.218939z m456.366109 307.328399h-51.3919a25.69595 25.69595 0 0 0-5.652989 0 179.874649 179.874649 0 0 0-14.903971-36.231929 25.69595 25.69595 0 0 0 4.881991-3.083994l36.231929-36.231929a25.69595 25.69595 0 0 0 0-36.231929L932.518179 568.658889a25.69595 25.69595 0 0 0-36.23193 0l-36.745928 35.97493a25.69595 25.69595 0 0 0-3.082994 4.882991 179.874649 179.874649 0 0 0-35.460931-15.160971 25.69595 25.69595 0 0 0 0-6.166988v-51.392899a25.69595 25.69595 0 0 0-25.696949-25.69595H743.908547a25.69595 25.69595 0 0 0-25.69695 25.69595v51.392899a25.69595 25.69595 0 0 0 0 5.652989 179.874649 179.874649 0 0 0-36.231929 14.903971 25.69595 25.69595 0 0 0-3.082994-4.88299l-36.231929-36.23093a25.69595 25.69595 0 0 0-36.231929 0l-36.23193 36.23093a25.69595 25.69595 0 0 0 0 36.231929l36.23193 36.231929a25.69595 25.69595 0 0 0 4.88199 3.083994 179.874649 179.874649 0 0 0-14.132972 37.259927 25.69595 25.69595 0 0 0-5.652989 0h-51.3919a25.69595 25.69595 0 0 0-25.69695 25.69595v51.3929a25.69595 25.69595 0 0 0 25.69695 25.69595h51.3919a25.69595 25.69595 0 0 0 5.652989 0 179.874649 179.874649 0 0 0 14.903971 36.231929 25.69595 25.69595 0 0 0-4.881991 3.082994l-36.231929 36.231929a25.69595 25.69595 0 0 0 0 36.231929l36.231929 36.231929a25.69595 25.69595 0 0 0 36.231929 0l36.23193-36.231929a25.69595 25.69595 0 0 0 3.082994-4.88199 179.874649 179.874649 0 0 0 36.231929 14.903971 25.69595 25.69595 0 0 0 0 5.652989v51.392899A25.69595 25.69595 0 0 0 744.679546 1023.998h51.391899a25.69595 25.69595 0 0 0 25.69695-25.69595V946.908151a25.69595 25.69595 0 0 0 0-5.652989 179.874649 179.874649 0 0 0 36.231929-14.903971 25.69595 25.69595 0 0 0 3.082994 4.88199l36.231929 36.231929a25.69595 25.69595 0 0 0 36.23193 0l36.231929-36.231929a25.69595 25.69595 0 0 0 0-36.231929l-36.231929-36.231929a25.69595 25.69595 0 0 0-4.882991-3.082994 179.874649 179.874649 0 0 0 14.903971-36.231929 25.69595 25.69595 0 0 0 5.653989 0h51.3919a25.69595 25.69595 0 0 0 25.696949-25.69595v-51.3929a25.69595 25.69595 0 0 0-26.724947-25.69595zM769.604497 896.544249a128.481749 128.481749 0 1 1 128.481749-128.481749 128.481749 128.481749 0 0 1-128.481749 128.481749z" p-id="3806"></path></svg>