<?xml version="1.0" standalone="no"?><!DOCTYPE svg PUBLIC "-//W3C//DTD SVG 1.1//EN" "http://www.w3.org/Graphics/SVG/1.1/DTD/svg11.dtd"><svg t="1606982153526" class="icon" viewBox="0 0 1024 1024" version="1.1" xmlns="http://www.w3.org/2000/svg" p-id="3424" xmlns:xlink="http://www.w3.org/1999/xlink" width="200" height="200"><defs><style type="text/css"></style></defs><path d="M724.39 208H155.61A91.62 91.62 0 0 0 64 299.61v568.78A91.62 91.62 0 0 0 155.61 960h568.78A91.62 91.62 0 0 0 816 868.39V299.61A91.62 91.62 0 0 0 724.39 208zM186 280h508a50 50 0 0 1 50 50v94H136v-94a50 50 0 0 1 50-50z m508 608H186a50 50 0 0 1-50-50V496h608v342a50 50 0 0 1-50 50z" p-id="3425"></path><path d="M868.39 64H244a36 36 0 0 0-36 36 36 36 0 0 0 36 36h594a50 50 0 0 1 50 50v594a36 36 0 0 0 36 36 36 36 0 0 0 36-36V155.61A91.62 91.62 0 0 0 868.39 64z" p-id="3426"></path><path d="M352 656m36 0l248 0q36 0 36 36l0 0q0 36-36 36l-248 0q-36 0-36-36l0 0q0-36 36-36Z" p-id="3427"></path><path d="M244 692m-36 0a36 36 0 1 0 72 0 36 36 0 1 0-72 0Z" p-id="3428"></path></svg>